<svg id="esxevq17dzr1" xmlns="http://www.w3.org/2000/svg" xmlns:xlink="http://www.w3.org/1999/xlink"
    viewBox="0 0 450 350" shape-rendering="geometricPrecision" text-rendering="geometricPrecision">
    <style>
        <![CDATA[
        #esxevq17dzr23_to {
            animation: esxevq17dzr23_to__to 5500ms linear infinite normal forwards
        }

        @keyframes esxevq17dzr23_to__to {
            0% {
                transform: translate(132.610371px, 91.283634px);
                animation-timing-function: cubic-bezier(0.420000, 0, 0.580000, 1)
            }

            16.363636% {
                transform: translate(129.584716px, 71.952931px);
                animation-timing-function: cubic-bezier(0.420000, 0, 0.580000, 1)
            }

            34.545455% {
                transform: translate(130.103429px, 89.440048px);
                animation-timing-function: cubic-bezier(0.420000, 0, 0.580000, 1)
            }

            54.545455% {
                transform: translate(134.173197px, 71.027036px);
                animation-timing-function: cubic-bezier(0.420000, 0, 0.580000, 1)
            }

            72.727273% {
                transform: translate(132.610371px, 91.283634px)
            }

            100% {
                transform: translate(132.610371px, 91.283634px)
            }
        }

        #esxevq17dzr23_tr {
            animation: esxevq17dzr23_tr__tr 5500ms linear infinite normal forwards
        }

        @keyframes esxevq17dzr23_tr__tr {
            0% {
                transform: rotate(-12.569202deg)
            }

            16.363636% {
                transform: rotate(-19deg)
            }

            34.545455% {
                transform: rotate(-10deg)
            }

            54.545455% {
                transform: rotate(-24deg)
            }

            72.727273% {
                transform: rotate(-12.569202deg)
            }

            100% {
                transform: rotate(-12.569202deg)
            }
        }

        #esxevq17dzr39_ts {
            animation: esxevq17dzr39_ts__ts 5500ms linear infinite normal forwards
        }

        @keyframes esxevq17dzr39_ts__ts {
            0% {
                transform: translate(404.993042px, 224.545555px) scale(1, 1)
            }

            43.636364% {
                transform: translate(404.993042px, 224.545555px) scale(1, 1);
                animation-timing-function: cubic-bezier(0.445000, 0.050000, 0.550000, 0.950000)
            }

            52.727273% {
                transform: translate(404.993042px, 224.545555px) scale(1.150000, 1.150000);
                animation-timing-function: cubic-bezier(0.445000, 0.050000, 0.550000, 0.950000)
            }

            60% {
                transform: translate(404.993042px, 224.545555px) scale(1.150000, 1.150000);
                animation-timing-function: cubic-bezier(0.445000, 0.050000, 0.550000, 0.950000)
            }

            63.636364% {
                transform: translate(404.993042px, 224.545555px) scale(1, 1)
            }

            100% {
                transform: translate(404.993042px, 224.545555px) scale(1, 1)
            }
        }

        #esxevq17dzr44_ts {
            animation: esxevq17dzr44_ts__ts 5500ms linear infinite normal forwards
        }

        @keyframes esxevq17dzr44_ts__ts {
            0% {
                transform: translate(58.616286px, 105.376576px) scale(0.800000, 0.800000)
            }

            14.545455% {
                transform: translate(58.616286px, 105.376576px) scale(0.800000, 0.800000);
                animation-timing-function: cubic-bezier(0.445000, 0.050000, 0.550000, 0.950000)
            }

            23.636364% {
                transform: translate(58.616286px, 105.376576px) scale(1, 1);
                animation-timing-function: cubic-bezier(0.445000, 0.050000, 0.550000, 0.950000)
            }

            60% {
                transform: translate(58.616286px, 105.376576px) scale(1, 1);
                animation-timing-function: cubic-bezier(0.445000, 0.050000, 0.550000, 0.950000)
            }

            63.636364% {
                transform: translate(58.616286px, 105.376576px) scale(0.800000, 0.800000)
            }

            100% {
                transform: translate(58.616286px, 105.376576px) scale(0.800000, 0.800000)
            }
        }

        #esxevq17dzr48_ts {
            animation: esxevq17dzr48_ts__ts 5500ms linear infinite normal forwards
        }

        @keyframes esxevq17dzr48_ts__ts {
            0% {
                transform: translate(320.445007px, 74.401482px) scale(1, 1)
            }

            29.090909% {
                transform: translate(320.445007px, 74.401482px) scale(1, 1);
                animation-timing-function: cubic-bezier(0.445000, 0.050000, 0.550000, 0.950000)
            }

            38.181818% {
                transform: translate(320.445007px, 74.401482px) scale(1.150000, 1.150000);
                animation-timing-function: cubic-bezier(0.445000, 0.050000, 0.550000, 0.950000)
            }

            60% {
                transform: translate(320.445007px, 74.401482px) scale(1.150000, 1.150000);
                animation-timing-function: cubic-bezier(0.445000, 0.050000, 0.550000, 0.950000)
            }

            63.636364% {
                transform: translate(320.445007px, 74.401482px) scale(1, 1)
            }

            100% {
                transform: translate(320.445007px, 74.401482px) scale(1, 1)
            }
        }

        #esxevq17dzr53_ts {
            animation: esxevq17dzr53_ts__ts 5500ms linear infinite normal forwards
        }

        @keyframes esxevq17dzr53_ts__ts {
            0% {
                transform: translate(191.166626px, 29.695740px) scale(1, 1)
            }

            21.818182% {
                transform: translate(191.166626px, 29.695740px) scale(1, 1);
                animation-timing-function: cubic-bezier(0.445000, 0.050000, 0.550000, 0.950000)
            }

            30.909091% {
                transform: translate(191.166626px, 29.695740px) scale(1.150000, 1.150000);
                animation-timing-function: cubic-bezier(0.445000, 0.050000, 0.550000, 0.950000)
            }

            60% {
                transform: translate(191.166626px, 29.695740px) scale(1.150000, 1.150000);
                animation-timing-function: cubic-bezier(0.445000, 0.050000, 0.550000, 0.950000)
            }

            63.636364% {
                transform: translate(191.166626px, 29.695740px) scale(1, 1)
            }

            100% {
                transform: translate(191.166626px, 29.695740px) scale(1, 1)
            }
        }

        #esxevq17dzr57_ts {
            animation: esxevq17dzr57_ts__ts 5500ms linear infinite normal forwards
        }

        @keyframes esxevq17dzr57_ts__ts {
            0% {
                transform: translate(74.590498px, 174.191330px) scale(1, 1)
            }

            7.272727% {
                transform: translate(74.590498px, 174.191330px) scale(1, 1)
            }

            16.363636% {
                transform: translate(74.590498px, 174.191330px) scale(1.150000, 1.150000)
            }

            60% {
                transform: translate(74.590498px, 174.191330px) scale(1.150000, 1.100000);
                animation-timing-function: cubic-bezier(0.445000, 0.050000, 0.550000, 0.950000)
            }

            63.636364% {
                transform: translate(74.590498px, 174.191330px) scale(1.150000, 1.100000)
            }

            100% {
                transform: translate(74.590498px, 174.191330px) scale(1.150000, 1.100000)
            }
        }

        #esxevq17dzr62_ts {
            animation: esxevq17dzr62_ts__ts 5500ms linear infinite normal forwards
        }

        @keyframes esxevq17dzr62_ts__ts {
            0% {
                transform: translate(370.136047px, 162.896332px) scale(1, 1)
            }

            36.363636% {
                transform: translate(370.136047px, 162.896332px) scale(1, 1);
                animation-timing-function: cubic-bezier(0.445000, 0.050000, 0.550000, 0.950000)
            }

            45.454545% {
                transform: translate(370.136047px, 162.896332px) scale(1.150000, 1.150000);
                animation-timing-function: cubic-bezier(0.445000, 0.050000, 0.550000, 0.950000)
            }

            60% {
                transform: translate(370.136047px, 162.896332px) scale(1.150000, 1.150000);
                animation-timing-function: cubic-bezier(0.445000, 0.050000, 0.550000, 0.950000)
            }

            63.636364% {
                transform: translate(370.136047px, 162.896332px) scale(1, 1)
            }

            100% {
                transform: translate(370.136047px, 162.896332px) scale(1, 1)
            }
        }
        ]]>
    </style>
    <defs>
        <linearGradient id="esxevq17dzr18-fill" x1="233.144549" y1="261.494054" x2="310.332052" y2="225.467654"
            spreadMethod="pad" gradientUnits="userSpaceOnUse">
            <stop id="esxevq17dzr18-fill-0" offset="1%" stop-color="rgb(0,0,0)" />
            <stop id="esxevq17dzr18-fill-1" offset="13%" stop-color="rgba(0,0,0,0.69)" />
            <stop id="esxevq17dzr18-fill-2" offset="25%" stop-color="rgba(0,0,0,0.32)" />
            <stop id="esxevq17dzr18-fill-3" offset="100%" stop-color="rgba(0,0,0,0)" />
        </linearGradient>
        <linearGradient id="esxevq17dzr80-fill" x1="240.948431" y1="139.725176" x2="187.045430" y2="217.867676"
            spreadMethod="pad" gradientUnits="userSpaceOnUse">
            <stop id="esxevq17dzr80-fill-0" offset="1%" stop-color="rgb(0,0,0)" />
            <stop id="esxevq17dzr80-fill-1" offset="13%" stop-color="rgba(0,0,0,0.69)" />
            <stop id="esxevq17dzr80-fill-2" offset="25%" stop-color="rgba(0,0,0,0.32)" />
            <stop id="esxevq17dzr80-fill-3" offset="100%" stop-color="rgba(0,0,0,0)" />
        </linearGradient>
    </defs>
    <g id="esxevq17dzr2">
        <rect id="esxevq17dzr3" width="450" height="350" rx="0" ry="0" fill="none" stroke="none" stroke-width="1" />
    </g>
    <g id="esxevq17dzr4">
        <path id="esxevq17dzr5"
            d="M127.140000,46.050000C111.580000,61.550000,100.790000,81.720000,87,99C76.760000,111.910000,64.750000,123.170000,54.370000,136C33.690000,161.550000,19.430000,193.870000,17.860000,227.500000C16.290000,261.130000,28.400000,295.760000,52.460000,316.800000C67.230000,329.730000,85.550000,337.070000,103.960000,342.520000C165.960000,360.890000,234.960000,359.060000,292.960000,327.450000C302.960000,322.030000,312.550000,315.740000,323.120000,311.950000C350.280000,302.180000,383.500000,308.620000,404.660000,287.660000C417.390000,275.040000,421.960000,255.560000,423.520000,237.110000C425.400000,214.950000,423.520000,191.260000,411.800000,173.260000C396.550000,149.660000,368.500000,140.810000,346.190000,124.930000C324.430000,109.510000,307.940000,87.140000,290,66.820000C246.790000,17.900000,179.860000,-6.490000,127.140000,46.050000Z"
            transform="matrix(1 0 0 1 0 -14.35000000000000)" fill="rgb(231,244,255)" stroke="none" stroke-width="1" />
    </g>
    <g id="esxevq17dzr6">
        <g id="esxevq17dzr7">
            <path id="esxevq17dzr8"
                d="M53.110000,256.900000L52.480000,260.370000L49.270000,261.830000C48.894303,262.006384,48.729589,262.451556,48.900000,262.830000C48.968587,262.979735,49.084555,263.102731,49.230000,263.180000L52.330000,264.850000L52.710000,268.360000C52.732504,268.562163,52.835110,268.746868,52.994860,268.872789C53.154611,268.998710,53.358172,269.055337,53.560000,269.030000C53.724566,269.006229,53.878017,268.932991,54,268.820000L56.550000,266.390000L60,267.110000C60.413619,267.189862,60.814634,266.922518,60.900000,266.510000C60.954903,266.354710,60.954903,266.185290,60.900000,266.030000L59.360000,262.860000L61.110000,259.790000C61.292706,259.432399,61.165678,258.994370,60.820000,258.790000C60.678468,258.706517,60.512361,258.674709,60.350000,258.700000L56.850000,259.160000L54.480000,256.550000C54.180348,256.255211,53.699652,256.255211,53.400000,256.550000C53.269010,256.633355,53.167555,256.755799,53.110000,256.900000Z"
                transform="matrix(1 0 0 1 0 -14.35000000000000)" fill="rgb(255,255,255)" stroke="none"
                stroke-width="1" />
            <path id="esxevq17dzr9"
                d="M265.230000,55.550000L263.230000,57.880000L260.140000,57.520000C259.963612,57.497344,259.785453,57.545744,259.644774,57.654535C259.504095,57.763327,259.412440,57.923584,259.390000,58.100000C259.369185,58.249435,259.401004,58.401456,259.480000,58.530000L261,61.200000L259.730000,64C259.652573,64.161342,259.643984,64.347209,259.706200,64.515005C259.768416,64.682800,259.896104,64.818137,260.060000,64.890000C260.199783,64.935114,260.350217,64.935114,260.490000,64.890000L263.490000,64.200000L265.770000,66.310000C265.895749,66.436409,266.066697,66.507480,266.245000,66.507480C266.423303,66.507480,266.594251,66.436409,266.720000,66.310000C266.819388,66.202076,266.882354,66.065651,266.900000,65.920000L267.180000,62.830000L269.890000,61.310000C270.047699,61.223654,270.164079,61.077550,270.212974,60.904536C270.261869,60.731522,270.239178,60.546116,270.150000,60.390000C270.077111,60.261583,269.964949,60.159936,269.830000,60.100000L267,58.900000L266.400000,55.900000C266.366182,55.724604,266.263726,55.569974,266.115390,55.470457C265.967053,55.370940,265.785119,55.334777,265.610000,55.370000C265.467880,55.389640,265.335227,55.452476,265.230000,55.550000Z"
                transform="matrix(1 0 0 1 0 -14.35000000000000)" fill="rgb(255,255,255)" stroke="none"
                stroke-width="1" />
            <path id="esxevq17dzr10"
                d="M342.770000,239.270000L341.150000,243.270000L336.960000,244.180000C336.618838,244.262281,336.351921,244.527756,336.267795,244.868468C336.183668,245.209180,336.296344,245.568381,336.560000,245.800000L339.830000,248.560000L339.400000,252.830000C339.359490,253.336935,339.733681,253.782401,340.240000,253.830000C340.438988,253.848356,340.638648,253.802819,340.810000,253.700000L344.460000,251.440000L348.380000,253.170000C348.703746,253.305131,349.075800,253.248736,349.344959,253.023736C349.614118,252.798736,349.735587,252.442576,349.660000,252.100000L348.660000,247.940000L351.510000,244.740000C351.675165,244.556617,351.759726,244.314564,351.744682,244.068226C351.729639,243.821887,351.616253,243.591922,351.430000,243.430000C351.280446,243.289448,351.085088,243.207753,350.880000,243.200000L346.610000,242.880000L344.450000,239.180000C344.193061,238.735576,343.624617,238.583395,343.180000,238.840000C343.002926,238.938486,342.859947,239.088440,342.770000,239.270000Z"
                transform="matrix(1 0 0 1 0 -14.35000000000000)" fill="rgb(255,255,255)" stroke="none"
                stroke-width="1" />
            <path id="esxevq17dzr11"
                d="M248,67.900000L248.060000,69.970000L246.390000,71.200000C246.191177,71.349117,246.150883,71.631177,246.300000,71.830000C246.355500,71.908687,246.436924,71.965330,246.530000,71.990000L248.530000,72.570000L249.180000,74.570000C249.234047,74.732739,249.375886,74.850616,249.545766,74.873974C249.715646,74.897333,249.884036,74.822112,249.980000,74.680000L251.150000,72.970000L253.220000,72.970000C253.468528,72.970000,253.670000,72.768528,253.670000,72.520000C253.672337,72.422269,253.640508,72.326783,253.580000,72.250000L252.310000,70.610000L252.940000,68.610000C253.012172,68.375488,252.883173,68.126387,252.650000,68.050000C252.555645,68.020100,252.454355,68.020100,252.360000,68.050000L250.360000,68.750000L248.680000,67.540000C248.477237,67.398671,248.199034,67.442830,248.050000,67.640000C248.012016,67.721175,247.994833,67.810527,248,67.900000Z"
                transform="matrix(1 0 0 1 0 -14.35000000000000)" fill="rgb(255,255,255)" stroke="none"
                stroke-width="1" />
            <path id="esxevq17dzr12"
                d="M75,275.760000L74.710000,277.540000L73.070000,278.310000C72.877101,278.404243,72.796646,278.636669,72.890000,278.830000C72.920764,278.912454,72.981461,278.980292,73.060000,279.020000L74.670000,279.840000L74.890000,281.630000C74.902442,281.733803,74.956038,281.828264,75.038764,281.892188C75.121489,281.956112,75.226416,281.984146,75.330000,281.970000C75.417046,281.960914,75.498288,281.922059,75.560000,281.860000L76.840000,280.590000L78.620000,280.930000C78.766092,280.957586,78.915159,280.899711,79.004363,280.780772C79.093567,280.661834,79.107388,280.502524,79.040000,280.370000L78.230000,278.750000L79.100000,277.170000C79.149468,277.078580,79.160395,276.971195,79.130354,276.871686C79.100313,276.772176,79.031791,276.688775,78.940000,276.640000C78.863637,276.598444,78.776472,276.581011,78.690000,276.590000L76.910000,276.870000L75.670000,275.550000C75.514463,275.397543,75.265537,275.397543,75.110000,275.550000C75.048641,275.608144,75.009700,275.686026,75,275.770000Z"
                transform="matrix(1 0 0 1 0 -14.35000000000000)" fill="rgb(255,255,255)" stroke="none"
                stroke-width="1" />
            <path id="esxevq17dzr13"
                d="M326.850000,258.570000L325.850000,260.250000L323.910000,260.390000C323.681759,260.411173,323.512647,260.611437,323.530000,260.840000C323.530752,260.932935,323.566452,261.022183,323.630000,261.090000L324.920000,262.540000L324.460000,264.420000C324.426449,264.575396,324.481373,264.736625,324.602813,264.839221C324.724254,264.941817,324.892392,264.969038,325.040000,264.910000L326.810000,264.130000L328.470000,265.130000C328.563798,265.188402,328.677198,265.206473,328.784502,265.180117C328.891807,265.153762,328.983931,265.085211,329.040000,264.990000C329.088744,264.912255,329.113122,264.821709,329.110000,264.730000L328.910000,262.800000L330.390000,261.550000C330.510004,261.444383,330.561510,261.280912,330.523727,261.125580C330.485943,260.970248,330.365107,260.848698,330.210000,260.810000L328.310000,260.400000L327.580000,258.600000C327.488403,258.387853,327.242637,258.289547,327.030000,258.380000C326.947051,258.416778,326.882243,258.485185,326.850000,258.570000Z"
                transform="matrix(1 0 0 1 0 -14.35000000000000)" fill="rgb(255,255,255)" stroke="none"
                stroke-width="1" />
            <path id="esxevq17dzr14"
                d="M297.110000,197.150000L296.280000,198.590000L294.620000,198.710000C294.425023,198.725963,294.278479,198.894710,294.290000,199.090000C294.298733,199.170333,294.329925,199.246580,294.380000,199.310000L295.490000,200.540000L295.090000,202.150000C295.045916,202.345597,295.165648,202.540716,295.360000,202.590000C295.434720,202.614434,295.515280,202.614434,295.590000,202.590000L297.100000,201.920000L298.510000,202.790000C298.681774,202.891265,298.902897,202.838196,299.010000,202.670000C299.051221,202.604495,299.068859,202.526887,299.060000,202.450000L298.890000,200.800000L300.160000,199.730000C300.268492,199.645482,300.317432,199.505261,300.285092,199.371591C300.252752,199.237920,300.145127,199.135577,300.010000,199.110000L298.390000,198.750000L297.760000,197.220000C297.681856,197.038543,297.474937,196.950492,297.290000,197.020000C297.218396,197.044447,297.155720,197.089713,297.110000,197.150000Z"
                transform="matrix(1 0 0 1 0 -14.35000000000000)" fill="rgb(255,255,255)" stroke="none"
                stroke-width="1" />
        </g>
    </g>
    <g id="esxevq17dzr15">
        <g id="esxevq17dzr16">
            <g id="esxevq17dzr17">
                <path id="esxevq17dzr18"
                    d="M272.630000,254.770000L267.180000,252.700000C266.649981,250.849774,266.380718,248.934644,266.380000,247.010000C266.368426,241.449960,268.651388,236.131490,272.690000,232.310000C274.440175,230.635403,276.471074,229.281471,278.690000,228.310000C263.650000,241.200000,272.630000,254.770000,272.630000,254.770000Z"
                    transform="matrix(1 0 0 1 0 -14.35000000000000)" fill="url(#esxevq17dzr18-fill)" stroke="none"
                    stroke-width="1" />
                <path id="esxevq17dzr19"
                    d="M300.750000,269.420000C300.771199,289.520017,294.229818,309.077449,282.120000,325.120000L282.120000,325.120000L281.920000,325.400000C254.506081,361.545085,204.942995,372.507876,164.842420,351.296230C124.741844,330.084583,105.912683,282.944950,120.364304,239.943314C134.815925,196.941678,178.292586,170.741252,223.064570,178.052848C267.836555,185.364445,300.719316,224.034929,300.740000,269.400000Z"
                    transform="matrix(1 0 0 1 0 -14.35000000000000)" fill="rgb(1,159,222)" stroke="none"
                    stroke-width="1" />
                <path id="esxevq17dzr20"
                    d="M178.400000,223.880000C173.310000,225.980000,167.700000,226.470000,162.480000,228.190000C157.260000,229.910000,152.020000,233.380000,150.680000,238.750000C149.980000,241.450000,150.350000,244.450000,149.020000,246.900000C147.250000,250.190000,143.120000,251.430000,140.610000,254.140000C135.840000,259.390000,138.980000,268.400000,144.810000,272.450000C150.640000,276.500000,158.080000,277.130000,165.050000,278.320000C166.956588,278.477880,168.773365,279.198326,170.270000,280.390000C174.330000,284.270000,169.830000,291.280000,171.560000,296.620000C172.560000,299.620000,175.370000,301.710000,176.670000,304.620000C179.160000,310.140000,175.390000,316.240000,172.900000,321.760000C168.407747,331.832031,168.002601,343.255019,171.770000,353.620000C171.593255,353.869747,171.399460,354.106979,171.190000,354.330000C161.260521,349.970254,152.164981,343.916712,144.310000,336.440000C136.660000,325.710000,130.610000,314.020000,131.240000,301.170000C131.590000,294.170000,133.910000,287.470000,134.350000,280.530000C135.070000,269.260000,131,257.030000,136.520000,247.190000C139.520000,241.740000,145.430000,235.770000,142.140000,230.490000C136.330000,231.340000,130.060000,231.490000,124.740000,229.490000C138.023594,201.850346,164.117894,182.569765,194.440000,177.990000C200.160000,194.310000,195.610000,216.640000,178.400000,223.880000Z"
                    transform="matrix(1 0 0 1 0 -14.35000000000000)" opacity="0.95" fill="rgb(255,255,255)"
                    stroke="none" stroke-width="1" />
                <path id="esxevq17dzr21"
                    d="M300.750000,269.470000C300.751216,275.328981,300.198760,281.174968,299.100000,286.930000C296.637855,288.932296,294.331231,291.118575,292.200000,293.470000C284.880000,302.040000,283.300000,313.930000,282.100000,325.170000L282.100000,325.170000C282.116386,325.405612,282.092718,325.642298,282.030000,325.870000C282.046798,325.716567,282.003820,325.562563,281.910000,325.440000C281.641429,323.169561,280.681405,321.036561,279.160000,319.330000C277.070000,317.080000,274.490000,317.760000,269.920000,315.940000C265.410000,313.640000,268.970000,308.850000,266.150000,307.010000C262.510000,305.120000,250.950000,306.960000,243.850000,304.290000C236.750000,301.620000,230.850000,296.500000,225.210000,291.510000C221.090000,285.800000,219.380000,284.690000,219.210000,278.200000C219.040000,271.710000,219.770000,270.200000,224.680000,265.520000C246.739011,263.132268,267.145160,252.701352,282,236.220000C268.724930,235.570827,255.567223,238.982343,244.280000,246C241.860000,247.510000,239.420000,249.200000,236.600000,249.440000C234.810000,249.490000,232.140000,250.780000,226.260000,249.440000C220.380000,248.100000,215.620000,249.190000,213.070000,244.080000C210.520000,238.970000,218.920000,220.550000,229.380000,214.740000C237.230000,210.400000,246.750000,211.240000,254.280000,207.440000C259.440000,204.840000,260.950000,200.300000,265.470000,196.960000L265.560000,196.960000C287.770495,214.490374,300.732403,241.224770,300.740000,269.520000Z"
                    transform="matrix(1 0 0 1 0 -14.35000000000000)" opacity="0.95" fill="rgb(255,255,255)"
                    stroke="none" stroke-width="1" />
            </g>
            <path id="esxevq17dzr22"
                d="M257.350000,347L257.230000,348.070000C225.614658,367.801368,185.251645,366.657429,154.804576,345.167134C124.357508,323.676839,109.760240,286.028450,117.762462,249.630357C125.764684,213.232264,154.806836,185.178122,191.460000,178.440000C184.993426,183.946039,179.084903,190.075629,173.820000,196.740000C172.820000,198.050000,171.750000,199.400000,170.750000,200.810000C169.940000,201.920000,169.130000,203.050000,168.350000,204.230000C167.770000,205.100000,167.180000,206.010000,166.610000,206.930000C164.481358,210.304432,162.570789,213.811595,160.890000,217.430000L160.890000,217.430000C157.657317,224.225369,155.414547,231.448706,154.230000,238.880000C152.514036,250.202558,153.676430,261.774914,157.610000,272.530000C159.579295,277.993171,162.102435,283.240499,165.140000,288.190000C169.771697,295.792461,175.079883,302.961523,181,309.610000C216.580000,349.710000,257.350000,347,257.350000,347Z"
                transform="matrix(1 0 0 1 0 -14.35000000000000)" opacity="0.1" fill="rgb(0,0,0)" stroke="none"
                stroke-width="1" />
        </g>
    </g>
    <g id="esxevq17dzr23_to" transform="translate(132.610371,91.283634)">
        <g id="esxevq17dzr23_tr" transform="rotate(-12.569202)">
            <g id="esxevq17dzr23" transform="translate(-132.610371,-91.283634)">
                <g id="esxevq17dzr24">
                    <path id="esxevq17dzr25"
                        d="M124.230000,82.690000C129.562195,81.263224,135.200315,83.490862,138.117311,88.176919C141.034307,92.862976,140.544150,98.905370,136.910000,103.060000C129.180000,105.130000,134.710000,103.860000,123.840000,106.770000C123.446304,106.661928,123.059021,106.531721,122.680000,106.380000C119.069025,104.907295,116.361228,101.821667,115.370000,98.050000C113.575949,91.361946,117.542369,84.485625,124.230000,82.690000Z"
                        transform="matrix(1 0 0 1 0 -14.35000000000000)" fill="rgb(255,255,255)" stroke="none"
                        stroke-width="1" />
                    <path id="esxevq17dzr26"
                        d="M119.780000,97.650000C119.780000,97.650000,117.780000,93.430000,118.610000,92.200000C119.440000,90.970000,122.920000,93.340000,123.550000,93.740000C123.680000,93.910000,127.900000,92.300000,129.340000,92.500000C130.030000,92.090000,132.050000,87.650000,132.910000,87.560000C133.770000,87.470000,134.610000,91.560000,135.010000,92.560000C135.410000,93.560000,137.300000,98.330000,137.170000,99.810000C137.040000,101.290000,136.810000,102.760000,137.110000,103.250000C137.410000,103.740000,129.780000,107.050000,124.790000,106.780000C123.710000,106.720000,120.660000,101.050000,120.490000,99.530000C120.217980,98.917261,119.980933,98.289586,119.780000,97.650000Z"
                        transform="matrix(1 0 0 1 0 -14.35000000000000)" fill="rgb(255,203,185)" stroke="none"
                        stroke-width="1" />
                    <path id="esxevq17dzr27" style="isolation:isolate"
                        d="M124.230000,82.690000C129.562195,81.263224,135.200315,83.490862,138.117311,88.176919C141.034307,92.862976,140.544150,98.905370,136.910000,103.060000C129.180000,105.130000,134.710000,103.860000,123.840000,106.770000C123.446304,106.661928,123.059021,106.531721,122.680000,106.380000C119.069025,104.907295,116.361228,101.821667,115.370000,98.050000C113.575949,91.361946,117.542369,84.485625,124.230000,82.690000Z"
                        transform="matrix(1 0 0 1 0 -14.35000000000000)" opacity="0.3" fill="rgb(255,255,255)"
                        stroke="none" stroke-width="1" />
                    <path id="esxevq17dzr28"
                        d="M130.380000,104.290000L124.540000,106.850000C124.540000,106.850000,125.850000,115.550000,125.250000,118.910000C124.650000,122.270000,125.620000,126.700000,131.780000,128.390000C137.940000,130.080000,143.980000,125.290000,146.100000,125.450000C148.220000,125.610000,149.660000,122.290000,150.100000,119.760000C150.540000,117.230000,150.510000,115.370000,149.990000,114.990000C149.608547,114.692182,149.106840,114.596696,148.642656,114.733571C148.178471,114.870446,147.808839,115.222865,147.650000,115.680000C147.110000,116.990000,146.930000,119.110000,146.330000,120.360000C145.730000,121.610000,144.330000,119.360000,143.620000,117C143.300000,116,139.880000,110.270000,139.880000,110.270000C140.680550,110.095021,141.509450,110.095021,142.310000,110.270000C143.020000,110.420000,144.080000,111.270000,144.400000,110.890000C144.980000,110.110000,143.840000,108.960000,143.040000,108.480000C142.570000,108.190000,139.520000,106.870000,139.040000,106.330000C136.730000,103.500000,136.810000,102.510000,136.810000,102.510000Z"
                        transform="matrix(1 0 0 1 0 -14.35000000000000)" fill="rgb(255,203,185)" stroke="none"
                        stroke-width="1" />
                    <path id="esxevq17dzr29"
                        d="M127,124.520000C127,124.520000,122.620000,128.430000,119.710000,124.320000C119.050000,123.230000,120.020000,121.150000,118.780000,118.470000C117.540000,115.790000,115.400000,115.770000,114.990000,116.550000C114.580000,117.330000,114.900000,117.890000,115.800000,118.940000C116.700000,119.990000,117.580000,120.440000,117.060000,122.710000C116.569785,124.953645,117.671018,127.242726,119.730000,128.260000C121.640000,129.110000,125.730000,129.690000,128.620000,127.340000C131.510000,124.990000,128.390000,124.340000,127.750000,124.340000C127.110000,124.340000,127,124.520000,127,124.520000Z"
                        transform="matrix(1 0 0 1 0 -14.35000000000000)" fill="rgb(255,203,185)" stroke="none"
                        stroke-width="1" />
                    <path id="esxevq17dzr30"
                        d="M129.850000,110.500000C131.266371,110.640591,132.650806,111.008649,133.950000,111.590000C135.027217,112.124817,135.954926,112.918523,136.650000,113.900000C137.110000,114.740000,135.650000,114.790000,133.650000,114.570000C132.543029,114.290503,131.395308,114.209249,130.260000,114.330000C127.560000,115.060000,127.850000,111.070000,128.650000,110.680000C129.450000,110.290000,129.850000,110.500000,129.850000,110.500000Z"
                        transform="matrix(1 0 0 1 0 -14.35000000000000)" opacity="0.1" fill="rgb(0,0,0)" stroke="none"
                        stroke-width="1" />
                    <path id="esxevq17dzr31"
                        d="M129.780000,110C131.192534,110.150177,132.572698,110.521370,133.870000,111.100000C134.915033,111.649257,135.797734,112.462996,136.430000,113.460000C136.880000,114.300000,135.580000,114.290000,133.620000,114.080000C132.464418,113.890080,131.285582,113.890080,130.130000,114.080000C127.420000,114.800000,127.820000,110.590000,128.630000,110.200000C129.440000,109.810000,129.780000,110,129.780000,110Z"
                        transform="matrix(1 0 0 1 0 -14.35000000000000)" fill="rgb(255,203,185)" stroke="none"
                        stroke-width="1" />
                    <path id="esxevq17dzr32"
                        d="M135,121.680000C135,121.680000,137.360000,121.430000,138.280000,122.680000C138.880019,123.747854,139.612479,124.735668,140.460000,125.620000C141.370000,126.380000,142.460000,123.840000,143.120000,122.390000C143.780000,120.940000,144.690000,121.610000,145.270000,121.960000C145.530282,122.177710,145.692615,122.490527,145.720795,122.828684C145.748975,123.166841,145.640657,123.502212,145.420000,123.760000L145.420000,123.760000C144.990000,124.230000,142.250000,128.690000,140.070000,128.760000C137.890000,128.830000,138.560000,127.970000,137.660000,127.760000C136.760000,127.550000,134.760000,125.760000,133.030000,127.870000"
                        transform="matrix(1 0 0 1 0 -14.35000000000000)" fill="rgb(255,203,185)" stroke="none"
                        stroke-width="1" />
                    <g id="esxevq17dzr33">
                        <path id="esxevq17dzr34"
                            d="M124.740000,107.070000C124.453749,107.070031,124.196322,106.895773,124.090000,106.630000C124.018190,106.457860,124.019128,106.263980,124.092601,106.092543C124.166074,105.921106,124.305823,105.786717,124.480000,105.720000C128.385456,104.147291,132.439190,102.971374,136.580000,102.210000C136.959828,102.149210,137.318985,102.401951,137.390000,102.780000C137.424919,102.961876,137.385259,103.150154,137.279941,103.302490C137.174622,103.454826,137.012487,103.558429,136.830000,103.590000C132.781616,104.324196,128.818041,105.466697,125,107C124.917911,107.037855,124.829999,107.061524,124.740000,107.070000Z"
                            transform="matrix(1 0 0 1 0 -14.35000000000000)" fill="rgb(255,91,115)" stroke="none"
                            stroke-width="1" />
                    </g>
                    <g id="esxevq17dzr35" style="isolation:isolate" opacity="0.3">
                        <path id="esxevq17dzr36"
                            d="M116.420000,96.160000C116.320271,96.161127,116.234954,96.088608,116.220000,95.990000C115.777992,93.335883,116.462979,90.617681,118.110000,88.490000C118.145985,88.450780,118.196772,88.428452,118.250000,88.428452C118.303228,88.428452,118.354015,88.450780,118.390000,88.490000C118.466229,88.567769,118.466229,88.692231,118.390000,88.770000C116.815166,90.811548,116.162834,93.417256,116.590000,95.960000C116.598583,96.013135,116.585386,96.067486,116.553394,96.110770C116.521402,96.154053,116.473314,96.182615,116.420000,96.190000Z"
                            transform="matrix(1 0 0 1 0 -14.35000000000000)" fill="rgb(1,159,222)" stroke="none"
                            stroke-width="1" />
                    </g>
                    <g id="esxevq17dzr37">
                        <path id="esxevq17dzr38"
                            d="M117,97.780000C116.943787,97.781983,116.889338,97.760203,116.850000,97.720000C116.639107,97.508990,116.502272,97.235320,116.460000,96.940000C116.453119,96.828819,116.530424,96.730041,116.640000,96.710000C116.692025,96.701452,116.745263,96.714905,116.786981,96.747142C116.828700,96.779379,116.855148,96.827501,116.860000,96.880000C116.890985,97.091826,116.989130,97.288117,117.140000,97.440000C117.216229,97.517769,117.216229,97.642231,117.140000,97.720000C117.103074,97.757683,117.052754,97.779249,117,97.780000Z"
                            transform="matrix(1 0 0 1 0 -14.35000000000000)" fill="rgb(179,226,245)" stroke="none"
                            stroke-width="1" />
                    </g>
                </g>
            </g>
        </g>
    </g>
    <g id="esxevq17dzr39_ts" transform="translate(404.993042,224.545555) scale(1,1)">
        <g id="esxevq17dzr39" transform="translate(-404.993042,-224.545555)">
            <g id="esxevq17dzr40">
                <rect id="esxevq17dzr41" width="37.650000" height="11.720000" rx="0" ry="0"
                    transform="matrix(0.40673700000000 -0.91354500000000 0.91354500000000 0.40673700000000 378.23776813000006 232.63608540999999)"
                    fill="rgb(1,159,222)" stroke="none" stroke-width="1" />
                <rect id="esxevq17dzr42" width="22.660000" height="11.720000" rx="0" ry="0"
                    transform="matrix(0.40673700000000 -0.91354500000000 0.91354500000000 0.40673700000000 393.33221476000006 239.34483720000003)"
                    fill="rgb(1,141,197)" stroke="none" stroke-width="1" />
                <rect id="esxevq17dzr43" width="31" height="11.720000" rx="0" ry="0"
                    transform="matrix(0.40673700000000 -0.91354500000000 0.91354500000000 0.40673700000000 408.43278710000004 246.08357134000005)"
                    fill="rgb(18,171,232)" stroke="none" stroke-width="1" />
            </g>
        </g>
    </g>
    <g id="esxevq17dzr44_ts" transform="translate(58.616286,105.376576) scale(0.800000,0.800000)">
        <g id="esxevq17dzr44" transform="translate(-58.150194,-97.271145)">
            <g id="esxevq17dzr45">
                <rect id="esxevq17dzr46" width="54.410000" height="38.190000" rx="8" ry="8"
                    transform="matrix(0.96126200000000 -0.27563700000000 0.27563700000000 0.96126200000000 26.73575051000000 86.41460771000000)"
                    fill="rgb(1,159,222)" stroke="none" stroke-width="1" />
                <path id="esxevq17dzr47" d="M50.220000,105.580000L54.720000,121.250000L66.600000,109.250000Z"
                    transform="matrix(1 0 0 1 0 -14.35000000000000)" fill="rgb(255,255,255)" stroke="none"
                    stroke-width="1" />
            </g>
        </g>
    </g>
    <g id="esxevq17dzr48_ts" transform="translate(320.445007,74.401482) scale(1,1)">
        <g id="esxevq17dzr48" transform="translate(-320.445007,-74.401482)">
            <g id="esxevq17dzr49">
                <path id="esxevq17dzr50"
                    d="M348.700000,90.480000C348.712487,106.719770,335.747966,119.994151,319.512430,120.365171C303.276894,120.736191,289.719522,108.067897,288.990150,91.844509C288.260778,75.621122,300.626670,61.787368,316.830000,60.700000L316.830000,90.480000Z"
                    transform="matrix(1 0 0 1 0 -14.35000000000000)" fill="rgb(1,159,222)" stroke="none"
                    stroke-width="1" />
                <path id="esxevq17dzr51"
                    d="M351.930000,87L320.070000,87L320.070000,57.200000C320.710000,57.150000,321.390000,57.130000,322.070000,57.130000C338.562840,57.135522,351.930001,70.507159,351.930000,87L351.930000,87Z"
                    transform="matrix(1 0 0 1 0 -14.35000000000000)" fill="rgb(1,159,222)" stroke="none"
                    stroke-width="1" />
                <path id="esxevq17dzr52"
                    d="M351.930000,87L320.070000,87L320.070000,57.200000C320.710000,57.150000,321.390000,57.130000,322.070000,57.130000C338.562840,57.135522,351.930001,70.507159,351.930000,87L351.930000,87Z"
                    transform="matrix(1 0 0 1 0 -14.35000000000000)" opacity="0.1" fill="rgb(0,0,0)" stroke="none"
                    stroke-width="1" />
            </g>
        </g>
    </g>
    <g id="esxevq17dzr53_ts" transform="translate(191.166626,29.695740) scale(1,1)">
        <g id="esxevq17dzr53" transform="translate(-191.166626,-29.695740)">
            <g id="esxevq17dzr54">
                <path id="esxevq17dzr55"
                    d="M202.820000,35C202.180000,30.920000,199.870000,27,193.660000,26.110000C187.450000,25.220000,183.660000,28.110000,181.570000,31.600000C179.129815,35.713040,178.709689,40.717699,180.430000,45.180000L186.770000,62.180000L197.550000,49.180000C200.280000,45.360000,203.650000,40.270000,202.820000,35ZM190.320000,42.710000C188.256467,42.346339,186.615254,40.775326,186.161789,38.729650C185.708325,36.683975,186.531931,34.566586,188.248494,33.364992C189.965057,32.163398,192.236456,32.114283,194.003354,33.240555C195.770253,34.366826,196.684615,36.446635,196.320000,38.510000L196.320000,38.510000C195.812985,41.317293,193.127944,43.183396,190.320000,42.680000Z"
                    transform="matrix(1 0 0 1 0 -14.35000000000000)" fill="rgb(255,91,115)" stroke="none"
                    stroke-width="1" />
                <path id="esxevq17dzr56" style="isolation:isolate"
                    d="M186,32.340000C188.240000,29.450000,191,26.530000,196.270000,26.690000C195.430840,26.406880,194.567098,26.202662,193.690000,26.080000C187.360000,25.170000,183.690000,28.080000,181.610000,31.570000C179.166518,35.681463,178.742701,40.686188,180.460000,45.150000L186.800000,62.150000L186.800000,62.150000C186.800000,62.150000,179.450000,40.760000,186,32.340000Z"
                    transform="matrix(1 0 0 1 0 -14.35000000000000)" opacity="0.2" fill="rgb(255,255,255)" stroke="none"
                    stroke-width="1" />
            </g>
        </g>
    </g>
    <g id="esxevq17dzr57_ts" transform="translate(74.590498,174.191330) scale(1,1)">
        <g id="esxevq17dzr57" transform="translate(-74.590498,-174.191330)">
            <g id="esxevq17dzr58"
                transform="matrix(0.98349863306994 -0.18091555695837 0.18091555695837 0.98349863306994 -28.29914823459235 44.40615694942537)">
                <path id="esxevq17dzr59"
                    d="M66.080000,194.810000C65.182256,192.241267,64.762005,189.529972,64.840000,186.810000C65.040000,184.810000,65.780000,182.890000,66.100000,180.900000C66.960000,175.530000,64.750000,170.230000,63.230000,165.010000C63.089220,164.622469,63.021410,164.212221,63.030000,163.800000C63.150000,162.320000,65.030000,161.690000,66.420000,161.460000C66.724598,161.367172,67.052953,161.392155,67.340000,161.530000C67.551813,161.706123,67.696582,161.949758,67.750000,162.220000Q69.220000,166.720000,70.290000,171.330000C70.572144,172.889480,71.056216,174.405567,71.730000,175.840000C72.840562,177.503473,74.142833,179.030621,75.610000,180.390000C80.990000,186.330000,82.780000,194.610000,84.340000,202.480000L86,211.050000C86.179858,211.427436,86.200681,211.861273,86.057798,212.254199C85.914916,212.647126,85.620288,212.966253,85.240000,213.140000C85.048488,213.229567,84.841210,213.280537,84.630000,213.290000C81.529335,214.300214,78.352419,215.059330,75.130000,215.560000C72.500000,215.950000,71.950000,215.440000,71.200000,213C69.400000,207,67.850000,200.860000,66.080000,194.810000Z"
                    transform="matrix(1 0 0 1 0 -14.35000000000000)" fill="rgb(104,225,253)" stroke="none"
                    stroke-width="1" />
                <path id="esxevq17dzr60"
                    d="M66.080000,194.810000C65.182256,192.241267,64.762005,189.529972,64.840000,186.810000C65.040000,184.810000,65.780000,182.890000,66.100000,180.900000C66.960000,175.530000,64.750000,170.230000,63.230000,165.010000C63.089220,164.622469,63.021410,164.212221,63.030000,163.800000C63.150000,162.320000,65.030000,161.690000,66.420000,161.460000C66.724598,161.367172,67.052953,161.392155,67.340000,161.530000C67.551813,161.706123,67.696582,161.949758,67.750000,162.220000Q69.220000,166.720000,70.290000,171.330000C70.572144,172.889480,71.056216,174.405567,71.730000,175.840000C72.840562,177.503473,74.142833,179.030621,75.610000,180.390000C80.990000,186.330000,82.780000,194.610000,84.340000,202.480000L86,211.050000C86.179858,211.427436,86.200681,211.861273,86.057798,212.254199C85.914916,212.647126,85.620288,212.966253,85.240000,213.140000C85.048488,213.229567,84.841210,213.280537,84.630000,213.290000C81.529335,214.300214,78.352419,215.059330,75.130000,215.560000C72.500000,215.950000,71.950000,215.440000,71.200000,213C69.400000,207,67.850000,200.860000,66.080000,194.810000Z"
                    transform="matrix(1 0 0 1 0 -14.35000000000000)" fill="rgb(255,91,115)" stroke="none"
                    stroke-width="1" />
                <path id="esxevq17dzr61"
                    d="M84.350000,202.530000C84.530000,203.210000,84.640000,203.930000,84.770000,204.640000L74.150000,207.490000L69,188.130000L79.170000,185.410000C81.920000,190.580000,83.160000,196.680000,84.350000,202.530000Z"
                    transform="matrix(1 0 0 1 0 -14.35000000000000)" opacity="0.8" fill="rgb(255,255,255)" stroke="none"
                    stroke-width="1" />
            </g>
        </g>
    </g>
    <g id="esxevq17dzr62_ts" transform="translate(370.136047,162.896332) scale(1,1)">
        <g id="esxevq17dzr62" transform="translate(-370.136047,-162.896332)">
            <g id="esxevq17dzr63">
                <g id="esxevq17dzr64">
                    <path id="esxevq17dzr65"
                        d="M381.470000,176.720000L377.470000,177.720000C376.805229,177.857728,376.147472,177.456648,375.965500,176.802603C375.783528,176.148558,376.139622,175.465398,376.780000,175.240000L376.850000,175.240000L380.850000,174.240000C382.167154,173.841661,382.939865,172.479704,382.606119,171.144720C382.272373,169.809736,380.949648,168.971639,379.600000,169.240000L377.100000,169.860000C376.412405,170.031208,375.716208,169.612594,375.545000,168.925000C375.373792,168.237405,375.792406,167.541208,376.480000,167.370000L378.980000,166.740000C381.737586,166.059575,384.526580,167.735653,385.220000,170.490000C385.906307,173.248470,384.227888,176.041359,381.470000,176.730000Z"
                        transform="matrix(1 0 0 1 0 -14.35000000000000)" fill="rgb(229,82,103)" stroke="none"
                        stroke-width="1" />
                    <path id="esxevq17dzr66"
                        d="M370.150000,184.520000C363.956106,186.037278,357.700055,182.265773,356.150000,176.080000L355,171.400000C354.890099,170.886726,355.195759,170.375838,355.700000,170.230000L355.700000,170.230000L376.300000,165.100000C376.813274,164.990099,377.324162,165.295759,377.470000,165.800000L377.470000,165.800000L378.640000,170.480000C379.145945,172.516085,379.094130,174.650858,378.490000,176.660000L378.430000,176.810000C377.188619,180.638694,374.057367,183.554388,370.150000,184.520000Z"
                        transform="matrix(1 0 0 1 0 -14.35000000000000)" fill="rgb(255,91,115)" stroke="none"
                        stroke-width="1" />
                    <path id="esxevq17dzr67"
                        d="M370.160000,184.520000C369.525578,184.672724,368.880337,184.776364,368.230000,184.830000C371.282417,183.492297,373.615792,180.911388,374.640000,177.740000L374.690000,177.590000C375.299086,175.581652,375.350934,173.445533,374.840000,171.410000L373.680000,166.730000C373.538381,166.221731,373.026236,165.910942,372.510000,166.020000L376.250000,165.090000C376.766236,164.980942,377.278381,165.291731,377.420000,165.800000L378.590000,170.480000C379.100934,172.515533,379.049086,174.651652,378.440000,176.660000L378.380000,176.810000C377.144773,180.620403,374.041611,183.531033,370.160000,184.520000Z"
                        transform="matrix(1 0 0 1 0 -14.35000000000000)" opacity="0.1" fill="rgb(0,0,0)" stroke="none"
                        stroke-width="1" />
                    <rect id="esxevq17dzr68" width="23.130000" height="2.890000" rx="0" ry="0"
                        transform="matrix(0.97029600000000 -0.24192200000000 0.24192200000000 0.97029600000000 354.89982066000010 158.14017938000001)"
                        fill="rgb(255,255,255)" stroke="none" stroke-width="1" />
                    <path id="esxevq17dzr69"
                        d="M379.830000,184.760000L361.720000,189.270000C359.830000,189.740000,358.030000,189.100000,357.720000,187.840000L357.510000,187.010000C357.430000,186.660000,357.780000,186.280000,358.290000,186.150000L381.390000,180.390000C381.900000,180.260000,382.390000,180.440000,382.480000,180.780000L382.690000,181.610000C383,182.870000,381.720000,184.290000,379.830000,184.760000Z"
                        transform="matrix(1 0 0 1 0 -14.35000000000000)" fill="rgb(229,82,103)" stroke="none"
                        stroke-width="1" />
                </g>
            </g>
        </g>
    </g>
    <g id="esxevq17dzr70">
        <g id="esxevq17dzr71">
            <path id="esxevq17dzr72"
                d="M213.090000,176.620000C210.425979,176.387533,207.745062,176.431097,205.090000,176.750000C204.735054,176.762707,204.389894,176.869706,204.090000,177.060000C203.751671,177.380526,203.556975,177.824001,203.550000,178.290000C203.180000,181.880000,206.020000,184.990000,209.090000,186.890000C217.390000,192.030000,227.840000,191.830000,237,195.190000C237.876865,195.421596,238.655499,195.930163,239.220000,196.640000C239.601254,197.406092,239.786781,198.254702,239.760000,199.110000C240.170000,203.950000,242.850000,208.300000,243.760000,213.060000C244.670000,217.820000,244.030000,221.920000,244.760000,226.710000C249.030000,230.570000,253.810000,234.380000,256.410000,233.180000C257.850000,232.520000,254.230000,222.130000,255.570000,220.720000C258.380000,217.800000,258.940000,213.450000,259.370000,209.420000L260.500000,198.420000C260.932062,196.773646,260.076320,195.062163,258.500000,194.420000C245,185.620000,229.120000,178,213.090000,176.620000Z"
                transform="matrix(1 0 0 1 0 -14.35000000000000)" opacity="0.1" fill="rgb(0,0,0)" stroke="none"
                stroke-width="1" />
            <path id="esxevq17dzr73"
                d="M253.390000,223.470000C252.940000,224.930000,252.520000,226.630000,253.390000,227.860000C253.812914,228.379444,254.369583,228.773608,255,229C256.506716,229.715566,258.287365,229.526300,259.610000,228.510000C260.288900,227.767822,260.770321,226.866877,261.010000,225.890000C262.170845,222.344279,263.001052,218.698733,263.490000,215C263.582317,214.673058,263.582317,214.326942,263.490000,214C263.295937,213.647233,262.989794,213.369241,262.620000,213.210000C260.620000,212.160000,257.570000,211.320000,256.430000,213.650000C255,216.610000,254.380000,220.300000,253.390000,223.470000Z"
                transform="matrix(1 0 0 1 0 -14.35000000000000)" fill="rgb(255,203,185)" stroke="none"
                stroke-width="1" />
            <path id="esxevq17dzr74"
                d="M259.340000,225.160000C259.753002,225.101518,260.173929,225.139161,260.570000,225.270000C260.841733,225.420581,261.077237,225.628781,261.260000,225.880000L265.530000,230.660000C266.360000,231.590000,267.220000,232.860000,266.640000,233.960000C266.225036,234.580130,265.552914,234.980465,264.810000,235.050000C262.739285,235.241418,260.657087,234.835389,258.810000,233.880000C257.500000,233.310000,256.200000,232.640000,254.930000,232.020000C253.982764,231.594291,253.155028,230.941720,252.520000,230.120000C251.520000,228.640000,251.280000,225.120000,252.990000,223.940000C253.860000,223.390000,254.630000,223.780000,255.460000,224.160000C256.649653,224.811808,257.983494,225.155581,259.340000,225.160000Z"
                transform="matrix(1 0 0 1 0 -14.35000000000000)" fill="rgb(255,91,115)" stroke="none"
                stroke-width="1" />
            <path id="esxevq17dzr75"
                d="M277,239.760000C277.030744,240.036626,277.000012,240.316628,276.910000,240.580000C276.761371,240.832368,276.547105,241.039723,276.290000,241.180000C275.480845,241.738618,274.532014,242.060666,273.550000,242.110000C272.574965,242.149504,271.635481,241.740552,271,241C270.550932,240.276466,270.276995,239.458078,270.200000,238.610000C269.838537,236.785700,269.660981,234.929743,269.670000,233.070000C269.590138,232.656381,269.857482,232.255366,270.270000,232.170000L270.400000,232.170000C271.930000,231.850000,274.990000,231.040000,275.770000,232.920000C276.559709,235.137256,276.988494,237.466872,277.040000,239.820000Z"
                transform="matrix(1 0 0 1 0 -14.35000000000000)" fill="rgb(255,203,185)" stroke="none"
                stroke-width="1" />
            <path id="esxevq17dzr76"
                d="M283.520000,239.580000C284.837451,239.651156,286.139238,239.900076,287.390000,240.320000C288.644144,240.756705,289.663758,241.689542,290.210000,242.900000C290.460743,243.489920,290.489165,244.150729,290.290000,244.760000C289.864818,245.665880,289.115531,246.379487,288.190000,246.760000C283.797953,249.093201,278.842603,250.156298,273.880000,249.830000C272.604493,249.886081,271.356970,249.445147,270.400000,248.600000C269.710106,247.577076,269.389154,246.349698,269.490000,245.120000L269.320000,239.310000C270.438161,239.362146,271.529468,239.670038,272.510000,240.210000C274.340000,240.830000,275.050000,239.350000,276.560000,238.980000C278.520000,238.510000,281.510000,239.380000,283.520000,239.580000Z"
                transform="matrix(1 0 0 1 0 -14.35000000000000)" fill="rgb(255,91,115)" stroke="none"
                stroke-width="1" />
            <path id="esxevq17dzr77"
                d="M267.780000,175.510000C269.030704,175.760846,270.189088,176.348683,271.130000,177.210000C272.099934,178.551521,272.541403,180.203467,272.370000,181.850000C272.339597,193.580589,270.121678,205.202622,265.830000,216.120000C265.764530,216.743614,265.453576,217.315537,264.965775,217.709531C264.477973,218.103524,263.853431,218.287194,263.230000,218.220000C262.932947,218.193565,262.644063,218.108600,262.380000,217.970000C259.808970,217.274627,257.275592,216.446856,254.790000,215.490000L258.150000,193.240000C258.307645,192.621005,258.272760,191.968653,258.050000,191.370000C257.799031,190.963387,257.456613,190.620969,257.050000,190.370000C253.219080,187.578494,249.169288,185.100463,244.940000,182.960000C241.560000,181.250000,237.690000,179.250000,236.780000,175.640000C236.391297,174.387076,236.641654,173.023191,237.450000,171.990000C237.983878,171.464836,238.611353,171.044259,239.300000,170.750000C241.540000,169.650000,244.360000,168.280000,246.930000,168.500000C248.990000,168.710000,249.790000,169.900000,251.500000,170.780000C256.260000,173.110000,262.600000,174,267.780000,175.510000Z"
                transform="matrix(1 0 0 1 0 -14.35000000000000)" fill="rgb(72,79,85)" stroke="none" stroke-width="1" />
            <path id="esxevq17dzr78"
                d="M244.810000,140.120000C246.470000,144.680000,247.280000,149.520000,248.740000,154.120000C249.057420,155.345704,249.629888,156.490642,250.420000,157.480000C251.470039,158.483394,252.740710,159.226616,254.130000,159.650000Q257.040000,160.780000,260.040000,161.650000C261.380000,162.010000,262.970000,162.650000,263.120000,163.990000C263.150650,164.443085,263.057309,164.895960,262.850000,165.300000C261.794975,167.171296,259.846457,168.363108,257.700000,168.450000C255.595413,168.508737,253.498666,168.169458,251.520000,167.450000C249.721750,167.089788,248.071573,166.202035,246.780000,164.900000C246.041693,163.814053,245.522013,162.594674,245.250000,161.310000C243.227058,154.108306,240.413262,147.152629,236.860000,140.570000C235.798839,138.828179,234.968552,136.955832,234.390000,135C233.570000,131.590000,233.560000,123.500000,237.090000,126.470000C239.920000,128.820000,243.560000,136.730000,244.810000,140.120000Z"
                transform="matrix(1 0 0 1 0 -14.35000000000000)" fill="rgb(255,203,185)" stroke="none"
                stroke-width="1" />
            <path id="esxevq17dzr79"
                d="M231.320000,175.080000C233.404308,174.273388,235.432189,173.327934,237.390000,172.250000C244.810000,168.150000,238.740000,166.130000,236.270000,161.200000C234.500000,157.700000,235.220000,153.510000,236.130000,149.710000C237.750000,143.040000,239.910000,136.110000,238.360000,129.450000C238.157955,128.375194,237.735777,127.353797,237.120000,126.450000C236.665794,125.885795,236.141576,125.381739,235.560000,124.950000C233.994714,123.600294,232.194860,122.549533,230.250000,121.850000C226.540000,120.620000,222.330000,121.520000,218.810000,123.290000C204.960000,130.230000,202.010000,147.780000,202.570000,161.810000C202.710000,165.700000,203.320000,169.810000,205.830000,172.810000C208.340000,175.810000,210.620000,176.870000,215.520000,177.370000C220.892194,177.917973,226.316846,177.142042,231.320000,175.110000Z"
                transform="matrix(1 0 0 1 0 -14.35000000000000)" fill="rgb(1,159,222)" stroke="none" stroke-width="1" />
            <path id="esxevq17dzr80"
                d="M210.680000,167.140000C210.788440,168.457026,211.210161,169.729045,211.910000,170.850000C213.150000,172.590000,215.420000,173.240000,217.510000,173.740000L226.920000,176.070000C228.068433,176.415713,229.260674,176.594212,230.460000,176.600000C233.030000,176.480000,235.240000,174.830000,237.280000,173.250000C237.800185,172.891461,238.253679,172.444735,238.620000,171.930000C233.420000,171.430000,228.240000,170.930000,223.080000,170.160000C220.030000,169.710000,216.820000,169.100000,214.580000,167.010000C213.430207,165.862228,212.552052,164.471530,212.010000,162.940000C211.640000,161.990000,211.470000,159.560000,210.390000,159.350000C210.121112,161.947426,210.218734,164.569756,210.680000,167.140000Z"
                transform="matrix(1 0 0 1 0 -14.35000000000000)" fill="url(#esxevq17dzr80-fill)" stroke="none"
                stroke-width="1" />
            <path id="esxevq17dzr81"
                d="M229.240000,132.700000C229.230933,133.076301,229.076882,133.434560,228.810000,133.700000C228.553327,133.849275,228.254343,133.909072,227.960000,133.870000C224.214700,133.691877,221.320346,130.515693,221.490000,126.770000C221.511258,126.461687,221.547971,126.154634,221.600000,125.850000C221.902756,124.675169,222.266583,123.516929,222.690000,122.380000C223.350000,120.060000,223.240000,117.440000,224.690000,115.520000C225.957425,118.436659,227.410400,121.269126,229.040000,124C229.878409,125.102421,230.179259,126.522285,229.860000,127.870000Z"
                transform="matrix(1 0 0 1 0 -14.35000000000000)" fill="rgb(255,203,185)" stroke="none"
                stroke-width="1" />
            <path id="esxevq17dzr82"
                d="M230.110000,126.720000L229.540000,130.430000C229.540000,130.430000,223.040000,127.280000,223.880000,121.430000C224.720000,115.580000,230.110000,126.720000,230.110000,126.720000Z"
                transform="matrix(1 0 0 1 0 -14.35000000000000)" opacity="0.1" fill="rgb(0,0,0)" stroke="none"
                stroke-width="1" />
            <path id="esxevq17dzr83"
                d="M237.420000,123.110000C237.082707,124.294195,236.383375,125.343193,235.420000,126.110000C234.960183,126.418525,234.448751,126.642065,233.910000,126.770000C230.026318,127.518671,226.101218,125.687226,224.180000,122.230000C222.399324,118.771358,222.209556,114.709602,223.660000,111.100000C224.249089,109.146352,225.581215,107.501842,227.370000,106.520000C229.359271,105.720556,231.618186,105.984096,233.370000,107.220000C235.710459,108.852311,237.518893,111.137198,238.570000,113.790000C239.480000,116.510000,238.340000,120.520000,237.420000,123.110000Z"
                transform="matrix(1 0 0 1 0 -14.35000000000000)" fill="rgb(255,203,185)" stroke="none"
                stroke-width="1" />
            <path id="esxevq17dzr84"
                d="M265.370000,191.050000C266.949470,193.071893,268.201407,195.329429,269.080000,197.740000C273.941663,209.463142,277.100359,221.821791,278.460000,234.440000C274.492356,234.939982,270.477644,234.939982,266.510000,234.440000C266.193539,225.531682,264.817179,216.692760,262.410000,208.110000C261.989441,206.260668,261.259143,204.495780,260.250000,202.890000C258.480000,200.340000,255.580000,198.890000,252.830000,197.470000C246.421722,194.349282,239.723043,191.864072,232.830000,190.050000C229.910000,189.250000,226.970000,188.500000,224.100000,187.580000C221.690000,186.760000,214.930000,183.770000,212.980000,182.150000C210.910156,180.583015,209.570029,178.238697,209.270000,175.660000C209.270000,176.300000,228.110000,177.590000,229.460000,177.440000C233.990000,176.960000,239.350000,174.360000,243.820000,176.200000C247.320000,177.640000,250.520000,180.630000,253.710000,182.690000C257.540000,185.120000,262.270000,187.470000,265.370000,191.050000Z"
                transform="matrix(1 0 0 1 0 -14.35000000000000)" fill="rgb(76,84,90)" stroke="none" stroke-width="1" />
            <path id="esxevq17dzr85"
                d="M244.720000,190.100000L221.720000,178.860000L248.720000,167.430000L271.720000,177.430000Z"
                transform="matrix(1 0 0 1 0 -14.35000000000000)" fill="rgb(168,203,232)" stroke="none"
                stroke-width="1" />
            <path id="esxevq17dzr86"
                d="M209.700000,137.340000C209.671304,137.752830,209.617875,138.163567,209.540000,138.570000C208.860000,144.900000,209.480000,151.110000,209.710000,157.400000C209.860000,161.290000,210.370000,168.710000,214.510000,170.700000C222.250000,174.410000,237.180000,173,237.180000,173C238.909770,172.718789,240.678540,172.790220,242.380000,173.210000C243.310000,173.490000,244.160000,173.980000,245.070000,174.320000C248.330000,175.560000,251.980000,174.940000,255.420000,174.320000C256.010515,174.248006,256.581237,174.061163,257.100000,173.770000C258.344887,172.658409,258.469455,170.754305,257.380000,169.490000C256.262480,168.321429,254.814447,167.522393,253.230000,167.200000C248.887269,165.789675,244.238779,165.609689,239.800000,166.680000C239.233411,166.871645,238.655674,167.028603,238.070000,167.150000C237.382298,167.259964,236.686364,167.310151,235.990000,167.300000L230.730000,167.300000C224.670000,167.300000,218.960000,167.380000,218.040000,160.300000C217.703397,157.677081,217.636380,155.026578,217.840000,152.390000C218.200000,147.630000,219.450000,142.910000,219.190000,138.150000C219.174291,136.639545,218.797107,135.154811,218.090000,133.820000C217.360293,132.471477,215.981201,131.600072,214.450000,131.520000C212.869481,131.639332,211.466282,132.576062,210.750000,133.990000C210.203220,135.035196,209.847630,136.169697,209.700000,137.340000Z"
                transform="matrix(1 0 0 1 0 -14.35000000000000)" fill="rgb(255,203,185)" stroke="none"
                stroke-width="1" />
            <path id="esxevq17dzr87"
                d="M281.170000,154.800000L249,171.160000L244.700000,190.100000L271.700000,177.480000Z"
                transform="matrix(1 0 0 1 0 -14.35000000000000)" fill="rgb(177,211,240)" stroke="none"
                stroke-width="1" />
            <path id="esxevq17dzr88"
                d="M239,116.280000C238.963077,115.103260,238.525631,113.974365,237.760000,113.080000C237.370869,112.629390,236.911645,112.244453,236.400000,111.940000C235.690000,111.520000,235.510000,111.490000,235.040000,112.170000C234.440000,113.050000,234.240000,114.070000,233.680000,114.990000C233.071573,116.003347,232.223347,116.851573,231.210000,117.460000C230.068155,118.165855,228.741310,118.514108,227.400000,118.460000C226.869670,118.379950,226.330330,118.379950,225.800000,118.460000C225.433824,118.524799,225.117195,118.753067,224.940000,119.080000C224.811967,119.541727,224.767935,120.022701,224.810000,120.500000C224.700000,121.740000,223.470000,122.610000,222.810000,123.690000C222.150000,124.770000,221.930000,126.360000,221.120000,127.510000C220.969591,127.742152,220.758682,127.928859,220.510000,128.050000C219.930000,128.300000,219.280000,127.980000,218.670000,127.870000C216.880000,127.560000,215.430000,129.230000,213.900000,130.240000C210.820000,132.240000,206.790000,131.750000,203.150000,131.140000C202.038737,131.007693,200.955370,130.700570,199.940000,130.230000C198.841686,129.579050,197.866760,128.739530,197.060000,127.750000C195.710000,126.270000,194.380000,124.750000,193.060000,123.250000C192.568009,122.768819,192.177035,122.194257,191.910000,121.560000C191.767810,121.117999,191.730155,120.649026,191.800000,120.190000C191.920355,119.331486,192.176913,118.497673,192.560000,117.720000C193.560000,115.550000,194.650000,113.200000,196.820000,112.230000C198.990000,111.260000,201.570000,111.980000,203.970000,111.730000C204.260537,111.730116,204.543808,111.639190,204.780000,111.470000C204.976164,111.258952,205.114017,111.000478,205.180000,110.720000C206.180000,107.390000,207.430000,103.780000,210.430000,102.060000C212.730466,100.946009,215.326535,100.595663,217.840000,101.060000C220.331024,101.527837,222.871994,101.672363,225.400000,101.490000C226.630000,101.290000,227.870000,100.880000,229.110000,100.640000C231.998050,99.987313,235.025441,100.425394,237.610000,101.870000C240.204181,103.417275,241.849192,106.162715,241.990000,109.180000C241.939996,109.758922,241.939996,110.341078,241.990000,110.920000C242.080000,111.470000,242.310000,112,242.400000,112.540000C242.492248,113.427296,242.227857,114.314856,241.665107,115.007038C241.102357,115.699221,240.287446,116.139202,239.400000,116.230000L239.010000,116.230000Z"
                transform="matrix(1 0 0 1 0 -14.35000000000000)" fill="rgb(76,84,90)" stroke="none" stroke-width="1" />
            <path id="esxevq17dzr89"
                d="M208.570000,140.850000C208.190003,144.347886,208.149816,147.874362,208.450000,151.380000C208.437332,151.682046,208.513845,151.981141,208.670000,152.240000C208.930109,152.524493,209.286340,152.702608,209.670000,152.740000C211.672095,153.113207,213.703457,153.307308,215.740000,153.320000C216.254336,153.494928,216.817703,153.453096,217.300563,153.204122C217.783422,152.955147,218.144222,152.520456,218.300000,152C218.340946,151.880192,218.367794,151.756022,218.380000,151.630000C219.500000,146.980000,220.600000,142.330000,221.440000,137.630000C221.770000,135.740000,222.010000,133.630000,220.870000,132.080000C219.220000,129.850000,214.790000,129.610000,212.650000,131.230000C210.080000,133.210000,209,137.860000,208.570000,140.850000Z"
                transform="matrix(1 0 0 1 0 -14.35000000000000)" fill="rgb(1,159,222)" stroke="none" stroke-width="1" />
            <path id="esxevq17dzr90"
                d="M243.560000,134.910000L247.060000,143.290000C247.460524,143.887944,247.334280,144.693296,246.770000,145.140000C245.054014,146.946054,243.020093,148.420646,240.770000,149.490000C238.701665,147.639624,237.022366,145.396026,235.830000,142.890000C234.670000,139.890000,234.930000,136.600000,235.270000,133.420000C235.480000,131.420000,235.410000,124.930000,238.830000,127.420000C241.220000,129.150000,242.490000,132.330000,243.560000,134.910000Z"
                transform="matrix(1 0 0 1 0 -14.35000000000000)" fill="rgb(1,159,222)" stroke="none" stroke-width="1" />
            <path id="esxevq17dzr91"
                d="M225.880000,118.480000C225.519812,118.552828,225.209366,118.779271,225.030000,119.100000C224.903451,119.562026,224.856114,120.042157,224.890000,120.520000C224.780000,121.760000,223.560000,122.640000,222.890000,123.710000C222.220000,124.780000,222.010000,126.380000,221.190000,127.530000C221.038422,127.760012,220.832300,127.948957,220.590000,128.080000C220.010000,128.320000,219.350000,128,218.750000,127.890000C216.950000,127.580000,215.510000,129.250000,213.970000,130.270000C210.900000,132.270000,206.870000,131.770000,203.230000,131.170000C202.088056,131.028971,200.974854,130.711877,199.930000,130.230000C198.831686,129.579050,197.856760,128.739530,197.050000,127.750000C195.700000,126.270000,194.370000,124.750000,193.050000,123.250000C192.560238,122.766958,192.169584,122.192867,191.900000,121.560000C191.757810,121.117999,191.720155,120.649026,191.790000,120.190000C192.368822,119.840621,192.970136,119.529942,193.590000,119.260000C195.484096,118.241210,197.699702,117.997422,199.770000,118.580000C201.420000,119.220000,202.600000,120.690000,204.020000,121.740000C208.114917,124.612038,213.688229,124.091128,217.180000,120.510000C217.802359,119.689360,218.532230,118.956125,219.350000,118.330000C220.800000,117.530000,223.790000,117.650000,225.880000,118.480000Z"
                transform="matrix(1 0 0 1 0 -14.35000000000000)" opacity="0.1" fill="rgb(0,0,0)" stroke="none"
                stroke-width="1" />
        </g>
    </g>
</svg>