<?xml version="1.0" standalone="no"?><!DOCTYPE svg PUBLIC "-//W3C//DTD SVG 1.1//EN" "http://www.w3.org/Graphics/SVG/1.1/DTD/svg11.dtd"><svg t="1724982299641" class="icon" viewBox="0 0 1024 1024" version="1.1" xmlns="http://www.w3.org/2000/svg" p-id="1757" xmlns:xlink="http://www.w3.org/1999/xlink" width="200" height="200"><path d="M181.418667 0h661.12C963.498667 0 1024 60.458667 1024 181.418667v661.12C1024 963.498667 963.498667 1024 842.538667 1024H181.418667C60.458667 1024 0 963.498667 0 842.538667V181.418667C0 60.458667 60.458667 0 181.418667 0z" fill="#F76499" p-id="1758"></path><path d="M810.666667 810.666667H256V256h446.037333L810.666667 381.269333V810.666667z m-508.458667-38.272h181.333333v-66.986667h91.050667V772.394667h189.866667V460.8h-110.250667V294.272h-352v478.122667z m462.250667-378.666667v21.546667H699.733333V319.445333l64.725334 74.24zM529.066667 614.4h-45.525334v45.525333H529.066667v45.482667h45.525333v-45.482667H529.066667V614.4z m0-45.525333V614.4h45.525333v-45.525333H529.066667z m0-45.482667h45.525333V477.866667H529.066667v-45.525334h-45.525334V477.866667H529.066667v45.525333z m0 0h-45.525334v45.482667H529.066667v-45.482667z" fill="#FFFFFF" p-id="1759"></path></svg>