<svg xmlns="http://www.w3.org/2000/svg" viewBox="0 0 64 64" id="calendar">
  <g>
    <path fill="#546e7a" d="M44 31a1.51 1.51 0 0 1-1.5-1.5v-12a1.5 1.5 0 0 1 3 0v12A1.5 1.5 0 0 1 44 31zM27.61 47.58H5.53A1.5 1.5 0 0 1 4 46.08V17.5a1.5 1.5 0 0 1 3 0v27.08h20.61a1.5 1.5 0 0 1 0 3z"></path>
    <path fill="#546e7a" d="M46.67 58.3a14.84 14.84 0 0 1-3-29.38 1.5 1.5 0 0 1 .59 2.94 11.89 11.89 0 0 0-9.47 11.61 11.42 11.42 0 0 0 .24 2.32A11.83 11.83 0 1 0 49.48 32a1.5 1.5 0 1 1 .71-2.92 14.84 14.84 0 0 1-3.52 29.22zM45.54 19H10.66a1.5 1.5 0 0 1 0-3H44v-4.5h-9.17a1.5 1.5 0 0 1 0-3h10.71A1.5 1.5 0 0 1 47 10v7.51A1.51 1.51 0 0 1 45.54 19z"></path>
    <path fill="#546e7a" d="M30.12 11.5H14.7a1.5 1.5 0 0 1 0-3h15.42a1.5 1.5 0 1 1 0 3zM5.53 19H4a1.5 1.5 0 0 1-1.5-1.5V10A1.5 1.5 0 0 1 4 8.5h6a1.5 1.5 0 0 1 0 3H5.5v4.51a1.5 1.5 0 1 1 0 3z"></path>
    <path fill="#37e288" d="M14.7 14.3a1.5 1.5 0 0 1-1.5-1.5V7.2a1.5 1.5 0 1 1 3 0v5.6a1.5 1.5 0 0 1-1.5 1.5zm20.13 0a1.5 1.5 0 0 1-1.5-1.5V7.2a1.5 1.5 0 0 1 3 0v5.6a1.5 1.5 0 0 1-1.5 1.5zM41.11 47a1.5 1.5 0 0 1-.52-2.91l4.58-1.69v-7.27a1.5 1.5 0 0 1 3 0v8.34a1.49 1.49 0 0 1-1 1.4l-5.56 2.05a1.34 1.34 0 0 1-.5.08z"></path>
  </g>
</svg>
