<?xml version="1.0" standalone="no"?><!DOCTYPE svg PUBLIC "-//W3C//DTD SVG 1.1//EN" "http://www.w3.org/Graphics/SVG/1.1/DTD/svg11.dtd"><svg t="1724982530052" class="icon" viewBox="0 0 1024 1024" version="1.1" xmlns="http://www.w3.org/2000/svg" p-id="6938" xmlns:xlink="http://www.w3.org/1999/xlink" width="200" height="200"><path d="M941.84004482 176.00983334L520.79754482 21.62383334a28.116 28.116 0 0 0-19.3725 0L80.38704482 176.00983334A28.0665 28.0665 0 0 0 62.00004482 202.39783334v505.2465a28.0755 28.0755 0 0 0 16.9785 25.8255l422.73 182.4525a28.071 28.071 0 0 0 22.311 0l419.364-182.4525a28.0755 28.0755 0 0 0 16.839-25.8255v-210.519a28.0665 28.0665 0 1 0-56.1375 0v192.1365l-391.293 170.244-394.6545-170.3835V222.04033334l392.9715-144.135 392.976 144.135v108.4905a28.071 28.071 0 1 0 56.1375 0V202.39783334a28.062 28.062 0 0 0-18.3825-26.388z m0 0" fill="#1F81FF" p-id="6939"></path><path d="M331.54104482 614.52583334c0-38.3895 4.7385-63.99 4.7385-99.063 0-20.3805-9.954-40.7655-45.9765-41.238v-33.1785c36.0225-0.4725 45.9765-20.8575 45.9765-40.2885 0-35.55-4.7385-61.146-4.7385-99.54 0-55.9305 19.908-72.522 63.99-72.522h26.541v29.862h-12.321c-27.018 0-34.128 12.3255-34.128 45.504 0 30.8115 2.844 58.302 2.844 93.375 0 36.495-9.954 53.0865-34.6005 59.2515v2.367c24.6465 6.165 34.6005 23.229 34.6005 59.2515 0 35.0775-2.844 62.5635-2.844 93.375 0 33.1785 7.11 45.0315 34.128 45.0315h12.321v30.3345h-26.541c-44.082 0-63.99-16.5915-63.99-72.522zM466.15404482 669.98383334c32.2335-13.2705 51.192-36.972 51.6645-64.9395-1.899 0.4725-3.3165 0.4725-5.2155 0.4725-19.4355 0-36.4995-12.321-36.4995-35.073 0-21.33 17.064-35.0775 37.9215-35.0775 26.541 0 42.183 22.275 42.183 58.779 0 49.77-28.9125 88.1595-77.733 106.6455l-12.321-30.807z m9.0045-282.024c0-22.275 16.1145-38.8665 36.495-38.8665 20.385 0 36.4995 16.5915 36.4995 38.8665 0 21.8025-16.1145 37.9215-36.4995 37.9215-20.3805-0.0045-36.495-16.119-36.495-37.9215zM601.23054482 656.71333334h12.3255c27.018 0 34.128-11.853 34.128-45.0315 0-30.8115-2.3715-58.2975-2.3715-93.375 0-36.0225 9.477-53.0865 34.128-59.2515v-2.367c-24.651-6.165-34.128-22.752-34.128-59.2515 0-35.073 2.3715-62.568 2.3715-93.375 0-33.1785-7.11-45.504-34.128-45.504h-12.3255v-29.862h26.5455c44.0775 0 64.458 16.5915 64.458 72.522 0 38.394-4.7385 63.99-4.7385 99.54 0 19.431 9.954 39.816 45.4995 40.2885v33.1785c-35.5455 0.4725-45.4995 20.8575-45.4995 41.238 0 35.073 4.7385 60.669 4.7385 99.063 0 55.935-20.3805 72.522-64.458 72.522h-26.5455v-30.3345z" fill="#DD697C" p-id="6940"></path></svg>